<mxfile host="Electron" modified="2023-11-24T11:36:46.510Z" agent="Mozilla/5.0 (Windows NT 10.0; Win64; x64) AppleWebKit/537.36 (KHTML, like Gecko) draw.io/22.0.3 Chrome/114.0.5735.289 Electron/25.8.4 Safari/537.36" etag="RUygtkLeuaJ2k11gV8md" version="22.0.3" type="device">
  <diagram name="Page-1" id="kIyW95GALPrIx5i4wPjt">
    <mxGraphModel dx="1036" dy="606" grid="1" gridSize="10" guides="1" tooltips="1" connect="1" arrows="1" fold="1" page="1" pageScale="1" pageWidth="850" pageHeight="1100" math="0" shadow="0">
      <root>
        <mxCell id="0" />
        <mxCell id="1" parent="0" />
        <mxCell id="hLlYBmuj8T5HRSvjR_Bg-2" style="edgeStyle=orthogonalEdgeStyle;rounded=0;orthogonalLoop=1;jettySize=auto;html=1;endArrow=none;endFill=0;" edge="1" parent="1" source="hLlYBmuj8T5HRSvjR_Bg-1">
          <mxGeometry relative="1" as="geometry">
            <mxPoint x="360" y="210" as="targetPoint" />
          </mxGeometry>
        </mxCell>
        <mxCell id="hLlYBmuj8T5HRSvjR_Bg-3" style="edgeStyle=orthogonalEdgeStyle;rounded=0;orthogonalLoop=1;jettySize=auto;html=1;endArrow=none;endFill=0;" edge="1" parent="1" source="hLlYBmuj8T5HRSvjR_Bg-1">
          <mxGeometry relative="1" as="geometry">
            <mxPoint x="360" y="340" as="targetPoint" />
          </mxGeometry>
        </mxCell>
        <mxCell id="hLlYBmuj8T5HRSvjR_Bg-1" value="" style="pointerEvents=1;verticalLabelPosition=bottom;shadow=0;dashed=0;align=center;html=1;verticalAlign=top;shape=mxgraph.electrical.signal_sources.source;aspect=fixed;points=[[0.5,0,0],[1,0.5,0],[0.5,1,0],[0,0.5,0]];elSignalType=ac;rotation=90;" vertex="1" parent="1">
          <mxGeometry x="330" y="250" width="60" height="60" as="geometry" />
        </mxCell>
        <mxCell id="hLlYBmuj8T5HRSvjR_Bg-4" value="V&lt;sub&gt;S&lt;/sub&gt;" style="text;html=1;strokeColor=none;fillColor=none;align=center;verticalAlign=middle;whiteSpace=wrap;rounded=0;" vertex="1" parent="1">
          <mxGeometry x="280" y="265" width="60" height="30" as="geometry" />
        </mxCell>
      </root>
    </mxGraphModel>
  </diagram>
</mxfile>
